<!--
  Original FlowReco artwork. Generated by scripts/generate-brand-icons.mjs.
  FlowReco recorder preview
-->
<svg xmlns="http://www.w3.org/2000/svg" width="1440" height="1181" viewBox="0 0 1440 1181" fill="none" role="img" aria-label="FlowReco recorder preview">
<rect width="1440" height="1181" fill="#F1F0ED"/><rect x="180" y="110" width="1080" height="890" rx="68" fill="#111315"/><rect x="250" y="180" width="940" height="500" rx="42" fill="#1D2025" stroke="#3C4148" stroke-width="3"/><rect x="330" y="250" width="780" height="360" rx="28" fill="#E8EDF0"/><rect x="388" y="306" width="470" height="246" rx="20" fill="#FFFFFF"/><rect x="884" y="306" width="168" height="246" rx="20" fill="#111315"/><circle cx="968" cy="430" r="48" fill="#FF6243"/><circle cx="720" cy="804" r="78" fill="#FF6243"/><circle cx="720" cy="804" r="30" fill="#111315"/><rect x="374" y="760" width="224" height="88" rx="44" fill="#282C32"/><rect x="842" y="760" width="224" height="88" rx="44" fill="#282C32"/><path d="M438 804h96M906 804h96" stroke="#F4F5F6" stroke-width="12" stroke-linecap="round"/><rect x="250" y="914" width="940" height="12" rx="6" fill="#363B42"/><rect x="250" y="914" width="420" height="12" rx="6" fill="#FF6243"/>
</svg>
