<svg width="440" height="280" viewBox="0 0 440 280" fill="none" xmlns="http://www.w3.org/2000/svg">
	<defs>
		<linearGradient id="bg" x1="0" y1="0" x2="440" y2="280" gradientUnits="userSpaceOnUse">
			<stop stop-color="#111315"/>
			<stop offset="1" stop-color="#25292C"/>
		</linearGradient>
		<radialGradient id="glow" cx="0.5" cy="0.42" r="0.65">
			<stop stop-color="#FF6243" stop-opacity="0.22"/>
			<stop offset="1" stop-color="#FF6243" stop-opacity="0"/>
		</radialGradient>
	</defs>
	<rect width="440" height="280" fill="url(#bg)"/>
	<rect width="440" height="280" fill="url(#glow)"/>
	<g transform="translate(108 70) scale(2.1)">
		<rect x="2" y="2" width="36" height="36" rx="9" fill="#111315" stroke="#34393D"/>
		<path d="M15 9h-3a3 3 0 0 0-3 3v3M25 9h3a3 3 0 0 1 3 3v3M31 25v3a3 3 0 0 1-3 3h-3M15 31h-3a3 3 0 0 1-3-3v-3" fill="none" stroke="#F4F5F6" stroke-width="2.4" stroke-linecap="round"/>
		<path d="M16 28V13h6.6c3.8 0 6 2 6 5.4 0 3.5-2.5 5.2-6 5.2H16m6.5 0 6.4 4.4" fill="none" stroke="#FF6243" stroke-width="2.8" stroke-linecap="round" stroke-linejoin="round"/>
	</g>
	<text x="206" y="126" font-family="ui-sans-serif, system-ui" font-weight="500" font-size="52" fill="#FFFFFF">FlowReco</text>
	<text x="220" y="196" text-anchor="middle" font-family="ui-sans-serif, system-ui" font-weight="500" font-size="20" fill="#C7D4EA">Screen recording, owned by you</text>
	<text x="220" y="231" text-anchor="middle" font-family="ui-sans-serif, system-ui" font-size="14" fill="#7E8DA8">Record your tab, screen, or camera. Share a link in seconds</text>
</svg>
